<svg id="Layer_1" data-name="Layer 1" xmlns="http://www.w3.org/2000/svg" width="600" height="600" viewBox="0 0 600 600"><g id="Layer_2" data-name="Layer 2"><rect width="600" height="600" fill="#a3dffd"/></g><g id="Layer_1-2" data-name="Layer 1"><path d="M102.8,343.5c0-109.2,88.8-197.7,198.3-197.7s198.3,88.5,198.3,197.7c0,4.3-.2,8.5-.4,12.7a224.7725,224.7725,0,0,0,5.3-48.9c0-118.6-90.9-214.7-203.1-214.7S97.9,188.7,97.9,307.3a224.7725,224.7725,0,0,0,5.3,48.9C102.9,352,102.8,347.7,102.8,343.5Z" fill="#4436fe"/><path d="M462.8,427.3c-20.4-3.2-45.1-3.6-70.6,6.6-51.7,20.2-87.8,75.8-91.2,72.6-.6-.6.2-2.2.6-3,5.4-12.5,29.8-61.4,65.5-86.7,8.1-5.6,16.9-10.9,16.9-10.9s8.1-4.7,16.5-8.8c12.4-6,47-16.5,94.5-22.8" fill="#4436fe"/><path d="M485.4,502.4a240.41,240.41,0,0,0-62.5-11.6c-67-3.7-120,19.8-121.3,15.5-.7-2.4,16.5-10.5,34.8-18.9,34.3-15.9,60.7-27.9,97.9-34.6,10.5-1.9,18.5-2.8,25.8-3.6a445.1243,445.1243,0,0,1,70-2.2" fill="#4436fe"/><path d="M137.2,427.9c20.4-3.2,45.1-3.6,70.6,6.6,51.7,20.2,87.8,75.8,91.2,72.6.6-.6-.2-2.2-.6-3-5.4-12.5-29.8-61.4-65.5-86.7-8.1-5.6-16.9-10.9-16.9-10.9s-8.1-4.7-16.5-8.8c-12.4-6-47-16.5-94.5-22.8" fill="#4436fe"/><path d="M114.6,503a240.41,240.41,0,0,1,62.5-11.6c67-3.7,120,19.8,121.3,15.5.7-2.4-16.5-10.5-34.8-18.9-34.3-15.9-60.7-27.9-97.9-34.6-10.5-1.9-18.5-2.8-25.8-3.6a445.1233,445.1233,0,0,0-70-2.2" fill="#4436fe"/></g></svg>